<svg width="15" height="14" viewBox="0 0 15 14" fill="none" xmlns="http://www.w3.org/2000/svg">
<path d="M11.875 0H3.125C2.2965 0.000992411 1.50222 0.330551 0.916387 0.916387C0.330551 1.50222 0.000992411 2.2965 0 3.125L0 10.625C0.000992411 11.4535 0.330551 12.2478 0.916387 12.8336C1.50222 13.4194 2.2965 13.749 3.125 13.75H11.875C12.7035 13.749 13.4978 13.4194 14.0836 12.8336C14.6694 12.2478 14.999 11.4535 15 10.625V3.125C14.999 2.2965 14.6694 1.50222 14.0836 0.916387C13.4978 0.330551 12.7035 0.000992411 11.875 0ZM3.125 1.25H11.875C12.2492 1.25074 12.6147 1.36345 12.9243 1.57363C13.234 1.78381 13.4737 2.08184 13.6125 2.42938L8.82625 7.21625C8.47402 7.56707 7.99713 7.76404 7.5 7.76404C7.00287 7.76404 6.52598 7.56707 6.17375 7.21625L1.3875 2.42938C1.52634 2.08184 1.76601 1.78381 2.07565 1.57363C2.3853 1.36345 2.75076 1.25074 3.125 1.25ZM11.875 12.5H3.125C2.62772 12.5 2.15081 12.3025 1.79917 11.9508C1.44754 11.5992 1.25 11.1223 1.25 10.625V4.0625L5.29 8.1C5.87664 8.68516 6.67141 9.01377 7.5 9.01377C8.32859 9.01377 9.12336 8.68516 9.71 8.1L13.75 4.0625V10.625C13.75 11.1223 13.5525 11.5992 13.2008 11.9508C12.8492 12.3025 12.3723 12.5 11.875 12.5Z" fill="white"/>
</svg>
