<svg width="16" height="15" viewBox="0 0 16 15" fill="none" xmlns="http://www.w3.org/2000/svg">
<path d="M15.1031 13.9417L11.3756 10.2141C12.3914 8.97176 12.8908 7.38649 12.7706 5.78623C12.6504 4.18596 11.9196 2.69312 10.7296 1.6165C9.53956 0.539881 7.98124 -0.0381557 6.37696 0.00195626C4.77269 0.0420682 3.2452 0.697259 2.11045 1.83201C0.975702 2.96676 0.320511 4.49424 0.280399 6.09852C0.240287 7.7028 0.818323 9.26112 1.89494 10.4512C2.97157 11.6412 4.4644 12.3719 6.06467 12.4921C7.66494 12.6124 9.2502 12.1129 10.4926 11.0971L14.2201 14.8247C14.3379 14.9385 14.4956 15.0014 14.6594 15C14.8231 14.9986 14.9797 14.9329 15.0955 14.8171C15.2113 14.7013 15.277 14.5447 15.2784 14.3809C15.2798 14.2172 15.2169 14.0595 15.1031 13.9417ZM6.5433 11.2608C5.5552 11.2608 4.5893 10.9677 3.76773 10.4188C2.94616 9.86984 2.30582 9.08958 1.92769 8.1767C1.54957 7.26382 1.45063 6.25932 1.6434 5.29021C1.83617 4.3211 2.31198 3.43091 3.01067 2.73223C3.70936 2.03354 4.59954 1.55772 5.56865 1.36496C6.53776 1.17219 7.54227 1.27112 8.45515 1.64925C9.36803 2.02738 10.1483 2.66772 10.6972 3.48929C11.2462 4.31086 11.5392 5.27676 11.5392 6.26486C11.5377 7.58939 11.0109 8.85926 10.0743 9.79585C9.1377 10.7324 7.86784 11.2593 6.5433 11.2608Z" fill="white"/>
</svg>
